<svg xmlns="http://www.w3.org/2000/svg" viewBox="0 0 202.74 117.65"><defs><style>.cls-1{fill:#fff;}</style></defs><g id="Layer_2" data-name="Layer 2"><g id="Layer_2-2" data-name="Layer 2"><path d="M102.07,85.36c-.81,1-1.8.23-2.7.21s-1.84-.35-2.78-.4c-1.89-.12-3.8-.12-5.69-.23-.76,0-1.5-.28-2.25-.4-.25,0-.52,0-.77,0-.69-.07-1.37-.16-2-.25-.21,0-.46-.19-.59-.12-1.39.77-2.76-.3-4.13,0a3.42,3.42,0,0,1-1,0,11.4,11.4,0,0,1-2.22-.41,4.06,4.06,0,0,1-3.69,0l-.45.59-.54-.71c-.66.82-1.27.9-1.79-.05a4.72,4.72,0,0,1-5.22.05,2.58,2.58,0,0,1-2.51.21.91.91,0,0,0-.58,0c-1.15.69-2.44.36-3.65.5a46.7,46.7,0,0,1-5.55.14c-1.73,0-3.45-.13-5.18-.2a18.07,18.07,0,0,1-3-.13,13.41,13.41,0,0,0-4.56.15,22.56,22.56,0,0,1-2.61,0,6.78,6.78,0,0,0,.14,3.91c.31,1.09.46,2.21.71,3.32.06.26.23.49.3.76.56,2,1.12,4,1.63,6a.75.75,0,0,1-.33.65,2.56,2.56,0,0,1-1.49.07,1.46,1.46,0,0,1-.66-1.2c.25-1.68-.39-3.17-.78-4.71-.28-1.13-.76-2.21-1-3.34s-.12-2-.35-3a4.55,4.55,0,0,0-1.06-2.37,7.14,7.14,0,0,0-2.69-.91c-.87-.23-1.78-.33-2.64-.58-.32-.08-.56-.42-.92-.73-.45.3-.94.38-1.25-.49-.08-.21-.73-.35-1.09-.31-1.27.13-1.62-.91-2.19-1.64a3.77,3.77,0,0,1-.52-1.38.77.77,0,0,1,.22-.64c.63-.55.93-1.42,2-1.58.58-.08,1.09-.93,1.56-1.49.28-.33.41-.52,1-.42a2.48,2.48,0,0,0,1.84-.55c1.58-1.48,3.72-2.71,3.3-5.38-.21-1.38-.66-2.72-.95-4.09-.34-1.62-.66-3.24-.88-4.88a3.24,3.24,0,0,1,.37-1.65,1.4,1.4,0,0,0-.63-2,.81.81,0,0,1-.39-.61c.34-2.65-.92-5-1.3-7.53A54.1,54.1,0,0,0,29.14,41a41.53,41.53,0,0,0-1.88-4.55,6.41,6.41,0,0,1-.21-.89c-.19-.69-.38-1.37-.58-2.06,0-.06-.09-.12-.09-.18-.07-2-1.27-3.58-1.78-5.4-.11-.38.12-.84.19-1.29,1.18.41,1.8.95,1.57,2.09,0,.17.21.39.33.59s.41.41.42.63a8.37,8.37,0,0,0,1.67,4.48,5.61,5.61,0,0,1,.44,2,4.27,4.27,0,0,0,.15.71c.54,1.43,1.2,2.84,1.62,4.31s.74,2.81,1.24,4.21a31,31,0,0,1,1.05,5.39c.45,2.71.9,5.44,1.31,8.16.27,1.79.46,3.58.72,5.37.19,1.33.39,2.67.66,4,.19.9,1.05,1,1.81.5,1.68-1.19,3.39-2.34,5.18-3.37,2-1.13,4-2.12,6-3.13.31-.16.73-.09,1-.22l3.15-1.84c.06,0,.17,0,.19-.09.78-1.57,2.6-1.71,3.8-2.73A14.49,14.49,0,0,1,60,56.28c.2-.11.33-.34.52-.46,2.88-1.83,5.76-3.65,8.63-5.49,1.22-.78,2.39-1.65,3.62-2.41.65-.39,1.47-.51,2.08-.94,1.2-.85,2.26-1.88,3.45-2.75,2-1.45,4.07-2.81,6.08-4.26.92-.67,1.73-1.5,2.63-2.2,1.61-1.25,3.26-2.46,4.89-3.69.13-.1.36-.19.36-.29.06-1.11,1.17-1,1.73-1.57.05,0,.17,0,.2,0,.89-.93,1.77-1.85,2.64-2.79.14-.15.17-.46.32-.51,1.26-.47,1.58-1.79,2.41-2.62s1.45-1.32,2.07-1.89l.82-3.34c.16-.64.36-1.27.47-1.92a2.13,2.13,0,0,0-.59-2.25,19.91,19.91,0,0,1-2.44-3.44c-.09-.14-.16-.36-.28-.4-.85-.26-.84-.69-.34-1.3.12-.14.11-.39.17-.66a20.93,20.93,0,0,1,3.45,3.06c1,1.39,2.09,2.81,1.9,4.87a19.83,19.83,0,0,1-2.28,7,12.34,12.34,0,0,1-2.29,2.47c-.56.59-1.09,1.2-1.69,1.75-.94.87-1.59,2-3,2.49-.53.18-.85,1-1.25,1.53-.22.29-.34.69-.62.9-.91.72-1.87,1.39-2.82,2.06a2.44,2.44,0,0,1-.7.17c-1.13,1.08-2.38,2.3-3.67,3.47a62.17,62.17,0,0,1-6.29,4.4Q78,46.84,75.67,48.33c-2.11,1.4-4.34,2.65-6.34,4.2a13.43,13.43,0,0,1-4,2c-.47.17-.78.74-1.19,1.09-.74.62-1.5,1.2-2.37,1.9l-.54-.35c-1,.69-1.92,1.34-2.84,2-.37.26-.67.61-1,.83-1.55.93-3.1,1.88-4.7,2.72-2.42,1.28-4.82,2.6-7.33,3.66a38.7,38.7,0,0,0-7.86,5c-.25.19-.57.27-.81.47-.46.38-.89.79-.46,1.49a2.1,2.1,0,0,1,.23.89,22.36,22.36,0,0,0,.32,4.28c.38,1.38.5,3,1.71,4a3.1,3.1,0,0,0,1.81.47c.75,0,1.47-.42,2.26.18.3.22,1-.16,1.55-.21a7.62,7.62,0,0,1,1.35,0c.4,0,.8.16,1.2.23l1.78.26a4.86,4.86,0,0,1,3.48-.84c2.07.09,4.15.09,6.22.14a16.85,16.85,0,0,0,2.92.08,5.38,5.38,0,0,1,2.36-.28,4.64,4.64,0,0,0,1.44.14c.68,0,1.37,0,2.05-.09s1.09-.09,1.63-.15,1.29-.16,2-.26,1.2-.11,1.8-.11c.91,0,1.84,0,2.75.08.47.05,2.29.07,2.81,0a15.94,15.94,0,0,1,2.39.06c1.92.11,3.85.22,5.77.38,1.66.14,3.31.39,5,.53s3.16.14,4.74.26c1.21.1,2.4.29,3.6.45.37,0,.75.28,1.07.22,1.06-.22,1.57.19,1.67,1.22ZM34.78,82.45c.33-.46.63-.71.67-1a5.23,5.23,0,0,0-.12-1.23C35.13,78.13,35,76,34.72,74c0-.27-.39-.73-.55-.71a4.48,4.48,0,0,0-1.94.47c-1.75,1.11-3.42,2.35-5.15,3.5-1.2.79-1.22.76-.52,2l.05.09c.74.92,1.49,1.79,2.87,1.41.16-.05.38.09.56.16Z"/><path d="M195.32,65.2l1,.27a2.58,2.58,0,0,0-.07.53q0,.94.06,1.89c0,1.1.11,2.2.13,3.3,0,1.73.07,3.46.07,5.2a8.82,8.82,0,0,0-.06,2.45c.65,2.06.48,4.15.54,6.24s.12,3.93.32,5.88A4.47,4.47,0,0,0,199,94.23c.41.3,1.13.64.28,1.34-.24.2-.62.89.24,1.1a.6.6,0,0,1,.33.35c.54,1.39,1.1,2.77,1.58,4.17.2.58.38,1.24-.42,1.39-.39,0-.86.14-1.15,0a2.53,2.53,0,0,1-1.12-1.12c-.54-1.45-.94-3-1.42-4.53a5.77,5.77,0,0,1-1.43,1c-1.43.45-2.43,1.87-4.08,1.81-.15,0-.31.13-.46.19l-3.57,1.33c-.09,0-.22,0-.27.11-.83,1.13-2.19,1.21-3.32,1.75a6.85,6.85,0,0,1-2.89.68,8.39,8.39,0,0,0-2.29.87,4.21,4.21,0,0,1-1.27.25,11.24,11.24,0,0,1-2.95,0c-1.15-.24-2.6-.11-3.17-1.6,0-.12-.17-.33-.23-.32-1.22.16-1.29-.86-1.5-1.58a3.46,3.46,0,0,1,.28-3.11l.65-.94c.17-.23.47-.44.49-.67.22-2.58,2.5-3.88,3.63-5.89a7.93,7.93,0,0,1,1.53-2.28c1.69-1.44,3-3.36,5.28-4.09a2.46,2.46,0,0,0,.62-.33,5.24,5.24,0,0,1,5.3-.48c.29.13.73,0,1,.14.89.68,1.74,1.43,2.58,2.18.06.06,0,.3-.1.65-1.22-.65-2.33-1.27-3.47-1.83a1.87,1.87,0,0,0-2.13,0,12.06,12.06,0,0,1-2.68,1,5.46,5.46,0,0,0-1,.55c-2.49,1.64-3.91,4.31-6,6.32a8.45,8.45,0,0,0-1.23,2c-.62,1.09-1.18,2.2-1.83,3.26a2.9,2.9,0,0,0,.5,4,3.06,3.06,0,0,1,.42.63c.54,0,1,0,1.41,0a19.09,19.09,0,0,0,3.56-.21c2-.47,3.9-1.21,5.87-1.76.49-.14,1.1.12,1.6,0,.7-.18,1.35-.58,2-.83A33.19,33.19,0,0,0,193,98a16.5,16.5,0,0,0,2.84-1.63,2.49,2.49,0,0,0,.5-1.71,3.27,3.27,0,0,0-1.39-2.55c-.1-.08-.28-.15-.28-.24-.1-1.6-1.59-2.49-2.08-3.95.79-.33,1.19,0,1.54.63.13.23.5.32.75.47a2.33,2.33,0,0,0,.42-.79,19.9,19.9,0,0,0,.2-3c0-.64-.31-1.27.15-1.88a2.34,2.34,0,0,0,.41-.78,1.2,1.2,0,0,0-.23-1l-.5.67a5.88,5.88,0,0,1,0-1.48c.17-.59.32-1.05-.22-1.32-.23-.53-.5-1-.68-1.58a4.16,4.16,0,0,1-.14-1c-.09-1.1-.14-2.2-.26-3.29a5.08,5.08,0,0,1,.44-3.57.61.61,0,0,0,.06-.49c-1.24-2.91-.78-6-.93-9-.08-1.81-.33-3.62-.48-5.43-.12-1.59-.26-3.19-.29-4.79s.17-3.1.07-4.63a34.28,34.28,0,0,0-.7-3.72,12,12,0,0,1,0-1.34,7.36,7.36,0,0,1,.44-3.59c.13-.27-.32-.82-.51-1.24s-.44-.66-.36-.86a3.47,3.47,0,0,1,.9-1.16c.06-.06.62.25.73.49A4.45,4.45,0,0,1,194,36,94.74,94.74,0,0,0,194.88,48c.15,1.24.14,2.49.25,3.73.05.61.29,1.21.31,1.82a11,11,0,0,1-.19,1.79,4.34,4.34,0,0,0-.08.8C195.4,59.1,196.11,62.09,195.32,65.2Zm-.76-4.53h-.2l-.18,2.61.38,0Z"/><path d="M6.49,16.59c.08-.23.16-.45.25-.67s.4-.66.31-.79c-.48-.68.16-1,.46-1.28,1-.91,2-1.75,3.07-2.57a32,32,0,0,1,2.91-2.14,3.64,3.64,0,0,1,1.35-.26,5.43,5.43,0,0,1,.94-1.07,22.84,22.84,0,0,1,3.49-2.14,42,42,0,0,1,5.05-1.79c1.19-.35,2.44-.51,3.65-.8,2.13-.5,4.24-1,6.41-1.43A114.2,114.2,0,0,1,48.63.15,82,82,0,0,1,61.17.34c4.11.4,8.15,1.44,12.22,2.19L77,3.17a8.35,8.35,0,0,1,1.13.21c1.63.55,3.25,1.13,4.88,1.69a3,3,0,0,0,.68.09,6.18,6.18,0,0,1,1.43.07c1.54.47,3.08,1,4.59,1.53,2.33.87,4.64,1.78,6.93,2.75a6.73,6.73,0,0,1,1.93,1.35c.2.19.11.76,0,1.12a1.18,1.18,0,0,1-.86,0c-1.39-.61-2.8-1.21-4.12-1.95S90.56,9,89.08,8.19a18.56,18.56,0,0,0-4.07-1c-2.17-.57-4.3-1.24-6.48-1.72A92.19,92.19,0,0,0,68.3,3.47c-1.6-.17-2.94-1-4.56-1-3,0-6-.22-9-.31-2.44-.07-4.87-.12-7.3-.09-1.78,0-3.57.19-5.34.33a38.15,38.15,0,0,0-3.87.42q-5.85,1-11.68,2.2a32.53,32.53,0,0,0-3.66.89c-.82.27-1.53.93-2.35,1.13-1.84.46-3.14,2-4.83,2.45s-2.55,1.94-4.18,2.36c-.83.22-1.49,1.2-2.16,1.91s-1.16,1.47-1.8,2.15a4.82,4.82,0,0,1-1.1.67Z"/><path d="M102.05,85.39l.81-.94.38.73c2.11-1.13,8.32.66,9.28,2.55,1.19-.52,2.26,0,3,1.2.63,1,1.48,1.9,1.25,3.19a7.73,7.73,0,0,1-.61,1.57c0,.06-.13.09-.15.15-.64,2.36-2.51,3.85-4,5.63a2.56,2.56,0,0,0-.22.35l-.2-.26c-.32.19-.88.35-.91.58-.2,1.45-1.4,1.87-2.41,2.5-.85.53-1.73,1-2.52,1.6a6.47,6.47,0,0,0-1.62.47c-1.12.65-2.12,1.52-3.26,2.13-2.4,1.26-4.83,2.49-7.31,3.59A61,61,0,0,1,86.92,113c-3.47,1-7,1.93-10.51,2.79a11.85,11.85,0,0,1-2.6.09.59.59,0,0,0-.3,0c-2.2,1.21-4.59,1.23-7,1.24-1.94,0-3.88.35-5.83.48-1.24.08-2.49,0-3.74,0-1,0-2.05,0-3.07-.09a6.14,6.14,0,0,1-1.08-.28,8.52,8.52,0,0,1-.87-.22,4.4,4.4,0,0,1-.69-.4,3.69,3.69,0,0,1,.67-.47,11.43,11.43,0,0,1,1.15-.3c.15,0,.37-.21.44-.16,1.14.77,2.25-.06,3.37-.06,2.5,0,5,0,7.52-.21,2.32-.17,4.63-.54,7-.84,1.45-.19,2.9-.45,4.36-.61a40.78,40.78,0,0,0,8.19-2.2c1.25-.42,2.47-1.22,3.72-1.25,1.71-.05,3.11-.84,4.64-1.3.86-.26,1.62-.84,2.46-1.18a14.21,14.21,0,0,1,2-.45,7.67,7.67,0,0,1,1.16-.89c1.19-.66,2.47-1.16,3.61-1.89,1.62-1,3.14-2.22,4.71-3.34,1.13-.81,2.28-1.59,3.38-2.44.74-.57,1.39-1.26,2.1-1.88A6.45,6.45,0,0,0,114,94c0-.09.1-.23.18-.25,1.61-.4,1.07-1.71.79-2.5a5,5,0,0,0-2.13-2.58c-1.39-.89-3-1.06-4.33-1.88a8.76,8.76,0,0,0-1.94-.42,4.09,4.09,0,0,1-1-.61c-.69.78-2.65.63-3.52-.45Z"/><path d="M163,95c-2,.51-2.53-1-3.27-2.15-.13-.2.11-.64.24-1.23a6.05,6.05,0,0,0,.52.74c.2.15.44.24.65.37a1.87,1.87,0,0,0,.27-.69,5.62,5.62,0,0,0-.23-1.34c-.35-1.26-.74-2.51-1.12-3.78.54,0,1-.12,1-.12s.39.47.48,0l.23,0c.14,1,.26,1.92.42,2.88,0,.25.13.67.27.71.88.2.68,1,.77,1.49.18,1,.24,2.07.36,3.24l1.16-.45a1,1,0,0,1-.13,1.55,13.94,13.94,0,0,1-1.79.82c-.56.3-1.07.7-1.63,1s-.91.47-1.38.77a17,17,0,0,1-1.9.86,30.38,30.38,0,0,1-4.15,1.14,6.9,6.9,0,0,0-3,.91c-.24.17-.73-.06-1.1,0-.74.07-1.48.19-2.21.32a23.18,23.18,0,0,1-3.65-.09c-1.3,0-1.87-.73-2.73-1.18a2.62,2.62,0,0,1-1-3.16c.63-1.55,1.1-3.18,1.86-4.67A27.38,27.38,0,0,1,144.49,89a2.89,2.89,0,0,1,3.38-.86c0-1.54.29-2,1.31-1.81,1.31.2,2.6.49,3.91.72a1.94,1.94,0,0,1,1.85,1.6c2-.17,3.14.65,3.05,2.15,1.56-.47.93,1,1.72,1.65l-1.18.12-.14-1.2c-1.34.33-1.92-.05-2.31-1.4-.07-.22-.48-.56-.57-.52-.92.45-1.46-.22-2.11-.61-1.53-.91-3.24-.78-4.91-.77-.28,0-.53.5-.83.72s-.8.53-1.15.76c-.49.5-1,1-1.42,1.45-.18.19-.5.41-.48.6.2,2-1.26,3.25-1.86,4.89a3,3,0,0,0-.15,1.64c.32,1.25,2.67,2.38,3.87,1.86,1.39-.6,2.76,0,4.14-.12.4,0,.8,0,1.2,0a17.48,17.48,0,0,0,2.15-.34,6.41,6.41,0,0,0,1.2-.54c.21-.1.43-.35.61-.32,1.28.22,2.08-.76,3.1-1.18.85-.35,1.73-.63,2.57-1a13.59,13.59,0,0,0,1.6-1Z"/><path d="M140.13,67.82a1.23,1.23,0,0,1-1.59,0,.89.89,0,0,0-.68,0c-1.46.55-2.93,1.08-4.33,1.75-.41.19-.61.81-.95,1.31-.76-.47-1.32.34-1.82.82a6.76,6.76,0,0,0-1.06,1.69c-.73.58-1.26,1-1.74,1.4a6.43,6.43,0,0,0-.77.94c-1,1.45-2.49,2.69-2.4,4.74a1.38,1.38,0,0,1-.45.84c-1,1-1.08,3.1-.26,3.78a9.51,9.51,0,0,0-.27,5.72,5.55,5.55,0,0,1,0,2.5,3.4,3.4,0,0,0,0,2,12.32,12.32,0,0,1,1.15,4.74c0,.37.73.82,1.22,1,.11.06.71-.51.84-.9-.83-3.11-.6-6.88-.49-10,0-.34,0-.7,0-1.06a4,4,0,0,1-.17-1v-.19a4,4,0,0,1,.12-1.1,3.28,3.28,0,0,1,.27-1,5.77,5.77,0,0,1,.09-2.74h0a4.84,4.84,0,0,1,.1-1.93,5.92,5.92,0,0,1,1-3.84,17.32,17.32,0,0,0,1.29-1.95,3.14,3.14,0,0,1,.53-.76,17.69,17.69,0,0,1,3.37-2.42,43.31,43.31,0,0,0,4-2.74c.16-.11.39-.28.52-.23,1.06.37,2-.17,2.94-.43.18,0,.22-.54.33-.83C140.64,67.92,140.26,67.71,140.13,67.82Z"/><path d="M147.32,66.65c1-.48,1.88-.92,2.76-1.25a2.92,2.92,0,0,1,1.62-.26,7.63,7.63,0,0,1,2.26,1c1.33.89,2.1,2.31,3.08,3.52a8,8,0,0,1,.6,1.56c.21.44.67.79.79,1.23.42,1.61.8,3.23,1.09,4.86.35,1.92.56,3.87.87,5.8a4.8,4.8,0,0,0,.5,1c.13.27.75,2.24.89,2.57-.65-.2-1.08.33-1.7.14-.14-.66-.86-3.86-1.06-4.7-.5-2.1-1-4.22-1.57-6.3a9.44,9.44,0,0,0-1.36-2.8,10.41,10.41,0,0,1-.94-2.38,20.19,20.19,0,0,0-2.71-3.9c-.11-.14-.6,0-.9,0-.75,0-1.48-.17-2.22-.19a1.31,1.31,0,0,0-.76.29c-.66.5-1.28,1-1.77,1.46a25.63,25.63,0,0,0-1.54,2.67,10.66,10.66,0,0,0-.5,2.2c-.05.27.05.61-.08.81a6.34,6.34,0,0,1-.92,1,4.37,4.37,0,0,1-.25-1.1,13.26,13.26,0,0,1,2.16-6.42C146,66.91,146.71,66.32,147.32,66.65Z"/><path d="M28.45,113.09a5.66,5.66,0,0,1,1,0q3.27.62,6.52,1.27a33.09,33.09,0,0,0,4.1.54c.9,0,1.76.56,2.67.64,2,.18,4,.25,6,.32a2.26,2.26,0,0,1,2.09,1c-1,.27-2.1,1-2.69.69-1.15-.62-2.28-.25-3.39-.46-2-.37-4-.45-5.94-.85s-3.63-1-5.46-1.46c-1.34-.31-2.73-.4-4.08-.66a3.65,3.65,0,0,1-1.05-.67Z"/><path d="M6.48,16.57a6.34,6.34,0,0,0-1.4,1.14A10.85,10.85,0,0,0,2.9,21.9a2.67,2.67,0,0,1-.39,1A2.55,2.55,0,0,0,2,25.12c.1.35-.35.94-.68,1.3-.82.88-.71,1.68.38,2.21A.63.63,0,0,1,2,29a10.63,10.63,0,0,1,.17,2.83,5.14,5.14,0,0,1-.45-.95A2.42,2.42,0,0,0,.41,29c-.2-.09-.46-.5-.4-.66C.49,27,.1,25.46.59,24.11A25.59,25.59,0,0,1,2.35,20a40.37,40.37,0,0,1,2.79-3.91,2.1,2.1,0,0,1,.56-.4l.79.87S6.48,16.57,6.48,16.57Z"/><path d="M193.35,29.2a9.68,9.68,0,0,1,.16,2.32c-.07.4-.71.69-1.09,1-.21-.32-.58-.62-.61-1C191.62,29.85,191.85,29.51,193.35,29.2Z"/><path d="M4.29,103.16l1.35-.73c.33.75.34,1.34-.54,1.72l.6,1.54L4.29,106Z"/><path d="M200.19,94.7c-.11-.63-.16-1,.65-1.16.39-.07.7-.67,1.12-1.09l.78.86Z"/><path d="M24.84,111.81c-1.36,1.16-2.24.06-3.36-.19.17-.19.29-.41.36-.4C22.79,111.39,23.73,111.59,24.84,111.81Z"/><path d="M7.14,107.08c1.55-.5,2-.35,2,.7C8.22,108.17,7.38,108.46,7.14,107.08Z"/><path d="M14.91,110a17,17,0,0,1-1.79-.61c-.11,0-.06-.44-.08-.68a8.52,8.52,0,0,1,1.52.3C14.72,109,14.74,109.44,14.91,110Z"/><path d="M23,24.65l-1.25-.57c.18-.79.69-.66,1.13-.38.22.14.3.5.45.77Z"/><path class="cls-1" d="M34.78,82.45,30,80.84c-.18-.07-.4-.21-.56-.16-1.38.38-2.13-.49-2.87-1.41l-.05-.09c-.7-1.2-.68-1.17.52-2,1.73-1.15,3.4-2.39,5.15-3.5a4.48,4.48,0,0,1,1.94-.47c.16,0,.52.44.55.71.24,2.08.41,4.17.61,6.26a5.23,5.23,0,0,1,.12,1.23C35.41,81.74,35.11,82,34.78,82.45Z"/><path class="cls-1" d="M194.56,60.67v2.62l-.38,0,.18-2.61Z"/></g></g></svg>