<svg width="57" height="91" viewBox="0 0 57 91" xmlns="http://www.w3.org/2000/svg">
    <defs>
        <g id="Man">
            <g id="Shirt">
                <!-- <path  d="M3.57113 90.0001C1.73779 80.8335 3.97112 61.5002 27.5711 61.5002C57.0711 61.5002 52.5711 85.5001 52.5711 90.0001H3.57113Z"/> -->
                <path id="shirt-fill" d="M3.57113 90.0001C1.73779 80.8335 3.97112 61.5002 27.5711 61.5002C57.0711 61.5002 52.5711 85.5001 52.5711 90.0001M3.57113 90.0001C14.9045 90.0001 40.5711 90.0001 52.5711 90.0001M3.57113 90.0001H52.5711" stroke="black" stroke-width="2"/>
            </g>
            <path id="Neck" d="M19.5 59C19 62.6667 19.9 70 27.5 70C37 70 37.5 62 37.5 59H19.5Z" fill="#FFD2C0" />
            <path id="Collar" fill-rule="evenodd" clip-rule="evenodd" d="M23.5 78.5C20.3333 77.5 14.3 73.7 15.5 66.5C16.926 57.9442 22.4188 57.9738 26.8235 57.9976C27.0522 57.9988 27.2779 58 27.5 58C27.869 58 28.2682 57.9933 28.6902 57.9862C33.4153 57.9066 41 57.7789 41 66.5C41 74.1 35.6667 77.6667 33 78.5C33 76 32.2 71 29 71C25 71 23.5 72 23.5 78.5ZM27.5 70C19.9 70 19 63.6667 19.5 60.5C25.3333 60.3333 37 60.1 37 60.5C37 61 37 70 27.5 70Z" fill="white" stroke="black" stroke-width="2" />
            <g id="Hair">
                <path d="M3.50001 2C7.83334 4.33333 19.5 7.6 31.5 2C44.7 2 48.6667 10 49 14C53 14.1667 59.3 21.1 52.5 35.5H45.5C45.5 35.5 45.1 24.5 39.5 20.5C29.5 28.5 21.5 22.1667 16.5 20.5C14.1667 22 9.80001 29.5 11 35.5H4.5C2.66667 29.6667 -0.0999912 12.4 3.50001 2Z" fill="#8B3A00" />
                <path d="M52.5 35.5C59.3 21.1 53 14.1667 49 14C48.6667 10 44.7 2 31.5 2C19.5 7.6 7.83334 4.33333 3.50001 2C-0.0999912 12.4 2.66667 29.6667 4.5 35.5M52.5 35.5C45.5 35.5 45.6667 35.5 45.5 35.5M52.5 35.5H45.5M45.5 35.5C45.5 35.5 45.1 24.5 39.5 20.5C29.5 28.5 21.5 22.1667 16.5 20.5C14.1667 22 9.80001 29.5 11 35.5M11 35.5C7.80001 35.5 5.33334 35.5 4.5 35.5M11 35.5H4.5" stroke="black" stroke-width="2" fill="#8B3A00"/>
            </g>
            <path id="Face" d="M11 43C11.1667 49.1667 14.7 61.4 27.5 61C43.5 60.5 44.5 49 45 43C49 43 52.5 43 52.5 39C52.5 35 48 35.5 45 35.5C45 31.5 45 27.5 39.5 20.5C39.5 20.5 33 25 28.5 25C23.9723 25 16.5 20.5 16.5 20.5C16.5 19.382 9 26.5 11 35.5C7.5 35.5 3.5 35 3.5 39C3.5 43 7.00001 43 11 43Z" fill="#FFD2C0" stroke="black" stroke-width="2" />
        </g>
    </defs>
</svg>