<?xml version="1.0" standalone="no"?>
<!DOCTYPE svg PUBLIC "-//W3C//DTD SVG 20010904//EN"
 "http://www.w3.org/TR/2001/REC-SVG-20010904/DTD/svg10.dtd">
<svg version="1.0" xmlns="http://www.w3.org/2000/svg"
 width="1456.000000pt" height="1456.000000pt" viewBox="0 0 1456.000000 1456.000000"
 preserveAspectRatio="xMidYMid meet">
<metadata>
Created by potrace 1.14, written by Peter Selinger 2001-2017
</metadata>
<g transform="translate(0.000000,1456.000000) scale(0.100000,-0.100000)"
fill="#000000" stroke="none">
<path d="M3172 14412 c-50 -136 -85 -243 -108 -327 -14 -49 -30 -106 -35 -125
-6 -19 -11 -44 -12 -55 -2 -11 -6 -26 -10 -32 -5 -7 -6 -13 -3 -13 2 0 0 -15
-5 -32 -5 -18 -12 -49 -15 -68 -3 -19 -10 -53 -16 -75 -5 -22 -12 -56 -14 -75
-3 -19 -7 -42 -9 -50 -3 -8 -7 -38 -10 -65 -3 -28 -9 -63 -12 -80 -4 -16 -7
-39 -8 -50 -2 -19 -10 -87 -20 -165 -15 -112 -19 -164 -29 -305 -4 -49 -9
-121 -11 -160 -3 -38 -7 -150 -9 -247 -3 -98 -7 -182 -10 -187 -4 -5 -2 -12 3
-15 4 -3 5 -25 1 -48 -5 -24 -5 -50 0 -58 4 -8 5 -24 3 -35 -2 -11 -4 -26 -4
-32 1 -16 1 -39 1 -55 -1 -11 6 -242 13 -480 1 -27 6 -48 10 -48 4 0 3 -8 -2
-19 -6 -10 -8 -21 -5 -24 3 -3 8 -38 10 -79 5 -96 13 -203 19 -255 3 -23 7
-70 10 -105 2 -35 7 -90 10 -123 7 -65 13 -128 19 -190 2 -22 5 -40 6 -40 1 0
3 -18 5 -40 1 -22 4 -40 4 -40 1 0 4 -20 6 -45 3 -25 7 -63 10 -85 4 -22 8
-53 10 -70 2 -16 7 -52 11 -80 4 -27 9 -59 10 -70 3 -29 13 -97 18 -120 2 -11
7 -42 10 -70 4 -27 9 -57 11 -65 3 -8 7 -31 9 -50 3 -20 7 -47 10 -60 3 -14 8
-41 11 -60 3 -19 10 -57 15 -85 6 -27 12 -64 13 -80 2 -17 6 -35 9 -41 4 -5 9
-28 12 -49 3 -22 8 -51 11 -65 3 -14 8 -36 11 -49 3 -13 12 -54 20 -90 8 -36
17 -77 20 -91 12 -61 75 -300 84 -326 6 -16 11 -31 11 -34 -1 -7 9 -41 21 -72
7 -19 15 -25 26 -20 9 3 4 -7 -12 -24 -58 -61 -128 -181 -141 -243 -3 -12 -7
-31 -10 -43 -19 -80 -23 -127 -20 -238 3 -116 6 -144 19 -188 3 -9 7 -29 10
-45 3 -15 12 -42 20 -59 9 -17 16 -35 16 -41 0 -17 89 -143 127 -180 61 -58
97 -87 110 -87 6 0 13 -4 15 -8 3 -8 130 -72 153 -77 6 -1 17 -5 25 -8 22 -8
149 -38 185 -43 84 -12 105 -15 170 -20 39 -4 114 -7 167 -8 54 0 98 -5 98 -9
0 -5 6 -5 12 -1 18 11 48 12 54 2 3 -4 10 -6 15 -3 5 4 9 -4 10 -17 1 -44 17
-184 24 -228 3 -14 7 -43 10 -65 5 -36 17 -100 32 -175 2 -14 5 -25 5 -25 -1
0 39 -163 44 -180 3 -11 7 -30 10 -42 2 -12 9 -35 15 -50 6 -16 10 -29 9 -31
-2 -5 53 -177 60 -187 5 -5 8 -14 8 -18 0 -11 52 -147 94 -247 40 -92 130
-268 179 -350 29 -47 57 -95 63 -107 6 -13 14 -23 19 -23 4 0 7 -7 7 -15 0 -8
4 -15 8 -15 5 0 15 -12 23 -27 8 -16 16 -30 19 -33 3 -3 21 -25 40 -50 19 -25
38 -46 42 -48 4 -2 8 -10 8 -17 0 -7 3 -15 8 -17 4 -1 24 -24 44 -49 36 -45
222 -234 269 -274 13 -12 46 -39 74 -60 27 -22 59 -48 69 -57 11 -10 28 -20
38 -24 10 -3 18 -8 18 -12 0 -4 -33 -42 -74 -84 -85 -91 -185 -237 -247 -362
-24 -49 -51 -91 -59 -94 -8 -2 -52 -22 -97 -42 -45 -21 -84 -35 -87 -32 -3 3
-6 1 -6 -4 0 -6 -18 -18 -40 -28 -62 -27 -219 -115 -282 -158 -31 -21 -62 -38
-67 -38 -6 0 -11 -4 -11 -10 0 -5 -7 -10 -15 -10 -8 0 -15 -4 -15 -10 0 -5 -6
-10 -14 -10 -8 0 -16 -4 -18 -8 -1 -4 -25 -23 -53 -42 -66 -46 -71 -50 -106
-83 -16 -15 -33 -27 -37 -27 -4 0 -15 -8 -23 -17 -9 -10 -40 -38 -69 -63 -95
-79 -336 -330 -364 -377 -4 -9 -16 -23 -25 -33 -25 -27 -48 -56 -68 -87 -9
-15 -20 -30 -24 -33 -23 -19 -194 -292 -234 -375 -11 -22 -22 -42 -25 -45 -12
-12 -30 -51 -30 -65 0 -8 -4 -15 -10 -15 -5 0 -10 -4 -10 -10 0 -5 -11 -33
-25 -62 -56 -121 -103 -237 -97 -242 3 -3 -1 -6 -8 -6 -7 0 -11 -3 -7 -6 3 -4
-1 -23 -9 -43 -24 -57 -62 -171 -89 -273 -29 -106 -33 -120 -40 -149 -2 -11
-6 -28 -9 -37 -3 -9 -8 -32 -11 -51 -3 -19 -8 -39 -12 -44 -3 -5 -7 -23 -8
-40 -2 -18 -6 -43 -9 -57 -3 -13 -8 -40 -11 -60 -3 -20 -8 -47 -11 -60 -3 -14
-7 -41 -10 -60 -2 -19 -7 -51 -10 -70 -2 -19 -7 -60 -10 -90 -4 -30 -8 -68 -9
-85 -27 -246 -26 -706 1 -950 2 -22 6 -62 9 -90 2 -27 7 -61 10 -75 3 -14 8
-45 11 -70 3 -25 8 -56 11 -70 3 -14 7 -40 10 -58 5 -31 7 -33 37 -28 38 7 63
12 99 21 l27 7 0 -81 0 -81 3920 0 c3129 0 3920 3 3921 13 0 6 1 41 2 77 l2
65 75 3 c41 2 76 5 78 7 2 2 5 45 7 97 2 51 4 93 5 93 1 0 3 34 5 75 3 41 7
122 11 180 8 122 9 816 1 905 -9 101 -17 188 -22 223 -2 19 -7 57 -9 85 -3 29
-8 63 -10 77 -3 14 -7 41 -10 60 -6 37 -13 73 -22 118 -3 15 -7 41 -10 57 -3
17 -17 77 -31 135 -13 58 -26 112 -28 120 -2 8 -4 16 -5 18 -3 2 -4 6 -14 47
-4 17 -10 37 -13 45 -3 8 -7 20 -9 27 -8 39 -88 259 -95 261 -5 2 -9 10 -9 17
0 7 -9 34 -20 59 -11 26 -20 48 -20 51 -2 15 -114 230 -126 242 -8 8 -12 18
-9 23 3 5 0 12 -5 15 -6 4 -16 17 -21 28 -25 56 -192 301 -233 343 -6 6 -20
23 -31 38 -47 66 -203 228 -322 334 -76 69 -95 84 -168 137 -15 11 -34 27 -43
35 -8 8 -23 19 -32 25 -35 20 -175 114 -187 125 -7 6 -16 11 -20 12 -5 0 -17
7 -28 14 -39 24 -131 73 -235 123 -179 87 -173 83 -190 139 -8 28 -18 54 -22
58 -5 4 -8 14 -8 22 0 7 -9 27 -21 43 -11 16 -18 29 -15 29 7 0 -86 153 -106
175 -29 32 -39 45 -34 45 9 0 -125 130 -177 171 l-48 38 63 46 c99 71 168 127
168 136 0 5 5 9 11 9 12 0 191 178 243 240 74 90 187 251 223 317 27 51 48 88
53 93 5 5 42 80 45 90 1 3 13 30 28 60 36 77 72 166 97 241 12 35 24 71 27 79
3 8 7 20 9 25 1 6 12 42 24 80 12 39 23 79 25 90 2 11 9 38 14 60 23 95 24 96
45 198 9 44 13 83 10 88 -3 5 0 9 6 9 6 0 9 3 6 8 -2 4 0 30 5 57 6 28 12 66
14 85 7 56 15 122 20 160 3 19 7 62 10 95 7 86 12 115 18 121 9 10 57 12 63 2
3 -4 10 -5 17 -1 6 3 51 7 101 8 100 2 262 14 286 20 8 3 33 7 55 10 22 3 67
12 100 21 33 8 67 16 75 18 8 1 32 10 54 19 21 10 45 17 52 17 8 0 14 3 14 8
0 4 22 18 50 31 59 29 122 81 191 158 21 24 90 143 82 143 -3 0 0 6 6 14 7 8
13 22 16 32 2 11 11 46 20 79 10 37 18 109 20 185 3 115 -1 164 -20 245 -4 17
-8 36 -8 43 0 6 -4 12 -9 12 -4 0 -8 7 -8 15 0 21 -24 68 -70 136 -27 40 -39
69 -41 100 -2 25 2 43 7 42 5 -1 39 -15 74 -32 l65 -30 12 22 c6 12 9 25 7 29
-3 5 0 8 5 8 6 0 11 4 11 10 0 5 13 38 29 72 15 35 52 122 81 193 28 72 56
139 61 150 10 24 60 166 63 180 1 6 5 16 9 23 5 6 5 17 2 22 -3 6 -2 10 2 10
7 0 25 49 38 105 2 6 11 37 21 70 10 33 18 62 19 65 12 61 18 87 23 95 4 5 8
21 10 35 2 14 11 61 22 105 10 44 22 100 26 125 4 25 9 54 10 65 20 116 31
215 40 375 8 150 3 347 -11 450 -3 19 -7 55 -11 80 -10 80 -13 94 -19 125 -3
17 -8 38 -11 47 -3 10 -7 28 -9 40 -6 31 -45 164 -59 203 -38 100 -55 140 -86
205 -42 87 -118 213 -131 218 -5 2 -9 8 -9 14 0 5 -27 42 -59 81 -91 110 -227
235 -308 282 -18 11 -33 23 -33 28 0 4 -4 5 -10 2 -5 -3 -10 -1 -10 6 0 7 -3
9 -6 6 -4 -4 -21 4 -38 16 -17 12 -32 21 -33 20 -2 -1 -23 6 -49 17 -25 11
-52 20 -59 20 -8 0 -16 4 -19 9 -3 4 -23 11 -44 15 -39 6 -39 6 -52 68 -8 35
-14 65 -15 68 -1 3 -5 21 -9 40 -5 19 -14 49 -21 65 -6 17 -18 48 -24 70 -28
90 -134 310 -183 382 -15 23 -28 45 -28 48 0 4 -13 24 -30 45 -16 21 -30 42
-30 47 0 5 -9 15 -20 23 -11 8 -20 18 -20 23 0 5 -19 32 -42 61 -135 162 -217
241 -437 418 -28 23 -172 118 -178 118 -3 0 -14 6 -22 14 -9 8 -77 46 -151 84
-114 59 -186 90 -385 167 -11 5 -24 9 -30 10 -5 1 -32 10 -59 19 -115 39 -414
109 -521 122 -22 3 -53 7 -70 9 -16 2 -30 4 -30 5 0 1 -13 3 -30 5 -16 1 -61
6 -100 10 -132 13 -161 15 -345 20 -184 6 -185 6 -245 -21 -33 -14 -67 -30
-75 -35 -8 -5 -22 -12 -30 -15 -14 -5 -35 -14 -85 -35 -71 -30 -298 -114 -335
-124 -8 -2 -60 -18 -115 -35 -94 -29 -227 -66 -268 -75 -10 -2 -26 -6 -35 -9
-9 -3 -28 -7 -42 -10 -14 -3 -36 -7 -50 -10 -145 -32 -343 -66 -352 -60 -4 3
-8 2 -8 -3 0 -4 -12 -8 -27 -9 -16 0 -48 -4 -73 -7 -307 -42 -824 -53 -1105
-22 -22 2 -67 7 -100 10 -65 5 -107 10 -181 20 -27 4 -60 8 -74 10 -34 4 -145
24 -200 35 -227 49 -287 63 -365 85 -49 14 -98 27 -108 30 -10 2 -27 7 -37 10
-10 3 -27 8 -37 10 -34 7 -300 103 -330 119 -17 8 -33 12 -37 9 -3 -4 -6 0 -6
7 0 7 -3 10 -6 7 -4 -4 -23 2 -43 12 -20 10 -63 32 -96 48 -33 16 -103 53
-156 81 l-97 52 -20 -58z"/>
</g>
</svg>
